<svg width="24" height="24" viewBox="0 0 24 24" fill="none" xmlns="http://www.w3.org/2000/svg">
<path fill-rule="evenodd" clip-rule="evenodd" d="M23.2 12C23.2 18.1856 18.1856 23.2 12 23.2C5.81441 23.2 0.800003 18.1856 0.800003 12C0.800003 5.8144 5.81441 0.799988 12 0.799988C18.1856 0.799988 23.2 5.8144 23.2 12ZM14.8 7.79999C14.8 9.34639 13.5464 10.6 12 10.6C10.4536 10.6 9.2 9.34639 9.2 7.79999C9.2 6.25359 10.4536 4.99999 12 4.99999C13.5464 4.99999 14.8 6.25359 14.8 7.79999ZM11.9999 13.4C9.17535 13.4 6.74153 15.0729 5.63523 17.482C7.17564 19.2688 9.45571 20.4 12 20.4C14.5442 20.4 16.8242 19.2689 18.3646 17.4821C17.2584 15.073 14.8245 13.4 11.9999 13.4Z" fill="#707A83"/>
</svg>
