<svg width="45" height="46" viewBox="0 0 45 46" fill="none" xmlns="http://www.w3.org/2000/svg">
<path fill-rule="evenodd" clip-rule="evenodd" d="M44.8996 23C44.8996 35.3712 34.8708 45.4 22.4996 45.4C10.1284 45.4 0.0996094 35.3712 0.0996094 23C0.0996094 10.6288 10.1284 0.599976 22.4996 0.599976C34.8708 0.599976 44.8996 10.6288 44.8996 23ZM14.0996 17.4C14.0996 15.8536 15.3532 14.6 16.8996 14.6C18.446 14.6 19.6996 15.8536 19.6996 17.4V28.6C19.6996 30.1464 18.446 31.4 16.8996 31.4C15.3532 31.4 14.0996 30.1464 14.0996 28.6V17.4ZM28.0996 14.6C26.5532 14.6 25.2996 15.8536 25.2996 17.4V28.6C25.2996 30.1464 26.5532 31.4 28.0996 31.4C29.646 31.4 30.8996 30.1464 30.8996 28.6V17.4C30.8996 15.8536 29.646 14.6 28.0996 14.6Z" fill="#B9484F"/>
</svg>
