<svg width="18" height="20" viewBox="0 0 18 20" fill="none" xmlns="http://www.w3.org/2000/svg">
<path d="M8.57243 0.810791C5.66278 0.810791 3.28922 3.19247 3.28922 6.10211C3.28922 7.88075 4.17923 9.45664 5.53369 10.4152C2.37447 11.6811 0.133301 14.77 0.133301 18.3742C0.138135 18.592 0.228055 18.7993 0.383809 18.9516C0.539563 19.1039 0.748769 19.1893 0.966634 19.1893C1.1845 19.1893 1.39371 19.1039 1.54946 18.9516C1.70521 18.7993 1.79513 18.592 1.79997 18.3742C1.79997 14.5492 4.88409 11.4667 8.70915 11.4667C10.0444 11.4667 11.2838 11.8473 12.3387 12.5002C12.4321 12.5582 12.536 12.5972 12.6446 12.615C12.7531 12.6328 12.864 12.629 12.9711 12.6038C13.0781 12.5787 13.1791 12.5327 13.2684 12.4684C13.3576 12.4042 13.4333 12.323 13.4911 12.2295C13.5489 12.1359 13.5876 12.0319 13.6052 11.9233C13.6227 11.8148 13.6187 11.7038 13.5933 11.5968C13.5679 11.4898 13.5216 11.3889 13.4571 11.2998C13.3927 11.2107 13.3113 11.1353 13.2176 11.0777C12.7423 10.7835 12.2262 10.5532 11.6942 10.3551C13.0049 9.39156 13.8638 7.84526 13.8638 6.10211C13.8638 3.19247 11.4821 0.810791 8.57243 0.810791ZM8.57243 2.47902C10.5813 2.47902 12.1971 4.09319 12.1971 6.10211C12.1971 8.11102 10.5813 9.71866 8.57243 9.71866C6.56351 9.71866 4.95589 8.11102 4.95589 6.10211C4.95589 4.09319 6.56351 2.47902 8.57243 2.47902ZM17.0067 12.4807C16.8712 12.4846 16.7388 12.5214 16.6208 12.5881C16.5028 12.6547 16.4028 12.7492 16.3296 12.8632L13.4569 17.1682L11.6551 15.9621C11.5637 15.9007 11.4612 15.8579 11.3532 15.8362C11.2453 15.8145 11.1341 15.8143 11.0261 15.8356C10.9181 15.857 10.8154 15.8995 10.7238 15.9606C10.6322 16.0217 10.5536 16.1003 10.4925 16.1918C10.4313 16.2834 10.3889 16.386 10.3675 16.494C10.3461 16.602 10.3463 16.7133 10.368 16.8212C10.3896 16.9292 10.4324 17.0317 10.4938 17.1231C10.5552 17.2145 10.634 17.2929 10.7257 17.3537L13.2306 19.0204C13.3219 19.0809 13.4242 19.1229 13.5316 19.1439C13.6391 19.1649 13.7497 19.1644 13.857 19.1427C13.9643 19.1209 14.0663 19.0782 14.1571 19.017C14.2479 18.9559 14.3258 18.8774 14.3862 18.7861L17.7212 13.7845C17.8082 13.6574 17.8582 13.5087 17.8658 13.3549C17.8735 13.2011 17.8383 13.0482 17.7643 12.9131C17.6903 12.7781 17.5803 12.6662 17.4466 12.5899C17.3128 12.5136 17.1606 12.4758 17.0067 12.4807Z" fill="#707A83"/>
</svg>
