<svg width="16" height="16" viewBox="0 0 16 16" fill="none" xmlns="http://www.w3.org/2000/svg">
<g clip-path="url(#clip0_1884_13643)">
<path d="M15.6875 6.45285H13.125V5.79138C13.125 5.61879 12.9851 5.47888 12.8125 5.47888H6.0625C5.88994 5.47888 5.75 5.61879 5.75 5.79138C5.75 5.96398 5.88994 6.10388 6.0625 6.10388H12.5V8.49969C12.5 10.6043 11.3763 12.5604 9.56194 13.6247H3.56306C1.74866 12.5604 0.625 10.6043 0.625 8.49973V6.10391H2.71875C2.89131 6.10391 3.03125 5.96401 3.03125 5.79141C3.03125 5.61882 2.89131 5.47891 2.71875 5.47891H0.3125C0.139938 5.47891 0 5.61882 0 5.79141V8.49973C0 9.68098 0.3175 10.8392 0.918187 11.8492C1.32328 12.5304 1.84891 13.1319 2.46444 13.6247H0.3125C0.139938 13.6247 0 13.7646 0 13.9372C0 15.0745 0.925219 15.9997 2.0625 15.9997H11.8125C12.9498 15.9997 13.875 15.0745 13.875 13.9372C13.875 13.7646 13.7351 13.6247 13.5625 13.6247H10.6606C11.2271 13.1711 11.7172 12.6253 12.1075 12.0101H12.9896C14.6495 12.0101 16 10.6597 16 8.99973V6.76535C16 6.59276 15.8601 6.45285 15.6875 6.45285ZM13.2158 14.2497C13.0727 14.8926 12.4978 15.3747 11.8125 15.3747H2.0625C1.37716 15.3747 0.802312 14.8926 0.659219 14.2497H3.47934H9.64566H13.2158ZM13.125 8.49973V8.32785H14.125V8.99973C14.125 9.62579 13.6157 10.1351 12.9896 10.1351H12.9186C13.055 9.60369 13.125 9.05426 13.125 8.49973ZM15.375 8.99973C15.375 10.315 14.3049 11.3851 12.9896 11.3851H12.4577C12.5575 11.1814 12.6466 10.9727 12.7245 10.7601H12.9896C13.9603 10.7601 14.75 9.97041 14.75 8.99973V8.01535C14.75 7.84276 14.6101 7.70285 14.4375 7.70285H13.125V7.07785H15.375V8.99973Z" fill="#B9484F"/>
<path d="M6.86118 1.72948L6.69858 1.52532C6.45989 1.2257 6.45955 0.806854 6.69774 0.506792C6.80505 0.371604 6.78243 0.175042 6.64724 0.0677605C6.51202 -0.0395832 6.31549 -0.016927 6.20818 0.118261C5.78811 0.647511 5.78874 1.38623 6.20971 1.91473L6.3723 2.11889C6.68421 2.51045 6.68468 3.05779 6.37343 3.44995L6.2068 3.65989C6.09949 3.79507 6.12211 3.99164 6.2573 4.09892C6.31477 4.14451 6.3833 4.16667 6.45136 4.16667C6.54343 4.16667 6.63464 4.12617 6.69636 4.04842L6.86299 3.83848C7.35611 3.21717 7.35539 2.34992 6.86118 1.72948Z" fill="#B9484F"/>
<path d="M8.59262 2.4326L8.43003 2.22848C8.19134 1.92882 8.191 1.50998 8.42918 1.20992C8.5365 1.07473 8.51387 0.878167 8.37868 0.770886C8.24347 0.663542 8.04693 0.686198 7.93962 0.821386C7.51956 1.35064 7.52018 2.08935 7.94115 2.61789L8.10375 2.82204C8.41562 3.21364 8.41609 3.76101 8.10484 4.15314L7.93825 4.36304C7.83093 4.49823 7.85356 4.69479 7.98875 4.80207C8.04622 4.84767 8.11475 4.86979 8.18281 4.86979C8.27487 4.86979 8.36612 4.82926 8.42781 4.75154L8.59437 4.54164C9.08753 3.92035 9.08681 3.0531 8.59262 2.4326Z" fill="#B9484F"/>
<path d="M5.12876 2.4326L4.96616 2.22848C4.72748 1.92885 4.72713 1.50998 4.96529 1.20992C5.0726 1.07473 5.04998 0.878165 4.91479 0.770853C4.77957 0.66354 4.58304 0.686228 4.47573 0.821353C4.0557 1.3506 4.05632 2.08935 4.47729 2.61785L4.63988 2.82201C4.95176 3.2136 4.95223 3.76098 4.64101 4.15307L4.47438 4.36298C4.36707 4.49817 4.38966 4.69473 4.52485 4.80204C4.58232 4.84763 4.65082 4.86979 4.71891 4.86979C4.81098 4.86979 4.9022 4.82929 4.96388 4.75157L5.13054 4.54163C5.62366 3.92035 5.62295 3.0531 5.12876 2.4326Z" fill="#B9484F"/>
<path d="M4.69555 5.57044C4.63742 5.51232 4.5568 5.47888 4.47461 5.47888C4.39242 5.47888 4.3118 5.51232 4.25367 5.57044C4.19558 5.62888 4.16211 5.70919 4.16211 5.79138C4.16211 5.87357 4.19555 5.95419 4.25367 6.01263C4.3118 6.07076 4.39242 6.10388 4.47461 6.10388C4.5568 6.10388 4.63742 6.07076 4.69555 6.01263C4.75395 5.95419 4.78711 5.87388 4.78711 5.79138C4.78711 5.70919 4.75395 5.62857 4.69555 5.57044Z" fill="#B9484F"/>
<path d="M11.3121 8.1875C11.1395 8.1875 10.9996 8.32741 10.9996 8.5C10.9996 9.65997 10.5291 10.7999 9.70871 11.6276C9.58721 11.7502 9.58811 11.948 9.71068 12.0695C9.77161 12.1299 9.85114 12.1601 9.93068 12.1601C10.0111 12.1601 10.0916 12.1292 10.1526 12.0675C11.0881 11.1238 11.6246 9.82347 11.6246 8.5C11.6246 8.32741 11.4846 8.1875 11.3121 8.1875Z" fill="#B9484F"/>
<path d="M9.18367 12.4754C9.09885 12.3251 8.90826 12.272 8.75795 12.3568L8.75082 12.3608C8.60048 12.4456 8.54738 12.6362 8.63217 12.7865C8.6896 12.8883 8.79551 12.9456 8.90463 12.9456C8.95663 12.9456 9.00938 12.9325 9.05788 12.9052L9.06501 12.9011C9.21535 12.8163 9.26845 12.6257 9.18367 12.4754Z" fill="#B9484F"/>
</g>
<defs>
<clipPath id="clip0_1884_13643">
<rect width="16" height="16" fill="white"/>
</clipPath>
</defs>
</svg>
