<svg width="18" height="18" viewBox="0 0 18 18" fill="none" xmlns="http://www.w3.org/2000/svg">
<path d="M9.16666 3.33329C9.16666 2.41282 9.91285 1.66663 10.8333 1.66663C11.7538 1.66663 12.5 2.41282 12.5 3.33329V4.16663C12.5 4.62686 12.8731 4.99996 13.3333 4.99996H15.8333C16.2936 4.99996 16.6667 5.37306 16.6667 5.83329V8.33329C16.6667 8.79353 16.2936 9.16663 15.8333 9.16663H15C14.0795 9.16663 13.3333 9.91282 13.3333 10.8333C13.3333 11.7538 14.0795 12.5 15 12.5H15.8333C16.2936 12.5 16.6667 12.8731 16.6667 13.3333V15.8333C16.6667 16.2935 16.2936 16.6666 15.8333 16.6666H13.3333C12.8731 16.6666 12.5 16.2935 12.5 15.8333V15C12.5 14.0795 11.7538 13.3333 10.8333 13.3333C9.91285 13.3333 9.16666 14.0795 9.16666 15V15.8333C9.16666 16.2935 8.79356 16.6666 8.33332 16.6666H5.83332C5.37309 16.6666 4.99999 16.2935 4.99999 15.8333V13.3333C4.99999 12.8731 4.62689 12.5 4.16666 12.5H3.33332C2.41285 12.5 1.66666 11.7538 1.66666 10.8333C1.66666 9.91282 2.41285 9.16663 3.33332 9.16663H4.16666C4.62689 9.16663 4.99999 8.79353 4.99999 8.33329V5.83329C4.99999 5.37306 5.37309 4.99996 5.83332 4.99996H8.33332C8.79356 4.99996 9.16666 4.62686 9.16666 4.16663V3.33329Z" stroke="#707A83" stroke-width="2" stroke-linecap="round" stroke-linejoin="round"/>
</svg>
