<svg width="16" height="4" viewBox="0 0 16 4" fill="none" xmlns="http://www.w3.org/2000/svg">
<path d="M2.16634 1.99996H2.17467M7.99967 1.99996H8.00801M13.833 1.99996H13.8413M2.99967 1.99996C2.99967 2.4602 2.62658 2.83329 2.16634 2.83329C1.7061 2.83329 1.33301 2.4602 1.33301 1.99996C1.33301 1.53972 1.7061 1.16663 2.16634 1.16663C2.62658 1.16663 2.99967 1.53972 2.99967 1.99996ZM8.83301 1.99996C8.83301 2.4602 8.45991 2.83329 7.99967 2.83329C7.53944 2.83329 7.16634 2.4602 7.16634 1.99996C7.16634 1.53972 7.53944 1.16663 7.99967 1.16663C8.45991 1.16663 8.83301 1.53972 8.83301 1.99996ZM14.6663 1.99996C14.6663 2.4602 14.2932 2.83329 13.833 2.83329C13.3728 2.83329 12.9997 2.4602 12.9997 1.99996C12.9997 1.53972 13.3728 1.16663 13.833 1.16663C14.2932 1.16663 14.6663 1.53972 14.6663 1.99996Z" stroke="#04111D" stroke-width="2" stroke-linecap="round" stroke-linejoin="round"/>
</svg>
