<svg width="11" height="10" viewBox="0 0 11 10" fill="none" xmlns="http://www.w3.org/2000/svg">
<path fill-rule="evenodd" clip-rule="evenodd" d="M5.23427 9.5657C4.92185 9.25328 4.92185 8.74675 5.23427 8.43433L8.66858 5.00001L5.23427 1.5657C4.92185 1.25328 4.92185 0.746746 5.23427 0.434327C5.54668 0.121907 6.05322 0.121907 6.36564 0.434327L10.3656 4.43433C10.6781 4.74675 10.6781 5.25328 10.3656 5.5657L6.36564 9.5657C6.05322 9.87812 5.54669 9.87812 5.23427 9.5657Z" fill="#707A83"/>
<path fill-rule="evenodd" clip-rule="evenodd" d="M0.434266 9.5657C0.121847 9.25328 0.121847 8.74675 0.434266 8.43433L3.86858 5.00001L0.434266 1.5657C0.121846 1.25328 0.121846 0.746746 0.434266 0.434327C0.746685 0.121907 1.25322 0.121907 1.56564 0.434327L5.56564 4.43433C5.87806 4.74675 5.87806 5.25328 5.56564 5.5657L1.56564 9.5657C1.25322 9.87812 0.746686 9.87812 0.434266 9.5657Z" fill="#707A83"/>
</svg>
