<svg width="24" height="20" viewBox="0 0 24 20" fill="none" xmlns="http://www.w3.org/2000/svg">
<path d="M2.01546 1L5.97392 4.58916M21.8675 19L17.9095 15.4112M14.0093 16.8246C13.3397 16.9398 12.6486 17 11.942 17C7.00363 17 2.82333 14.0571 1.41797 9.99997C1.80056 8.8955 2.3888 7.87361 3.14199 6.97118M9.60191 7.87868C10.2007 7.33579 11.0278 7 11.9415 7C13.7688 7 15.2502 8.34315 15.2502 10C15.2502 10.8284 14.8798 11.5784 14.2811 12.1213M9.60191 7.87868L14.2811 12.1213M9.60191 7.87868L5.97392 4.58916M14.2811 12.1213L5.97392 4.58916M14.2811 12.1213L17.9095 15.4112M5.97392 4.58916C7.69424 3.58354 9.74295 3 11.942 3C16.8804 3 21.0607 5.94292 22.466 10C21.6864 12.2507 20.0528 14.1585 17.9095 15.4112" stroke="#707A83" stroke-width="2" stroke-linecap="round" stroke-linejoin="round"/>
</svg>
