<svg width="15" height="16" viewBox="0 0 15 16" fill="none" xmlns="http://www.w3.org/2000/svg">
<path fill-rule="evenodd" clip-rule="evenodd" d="M9.50676 0.0335053C9.78398 0.107126 10.0162 0.296242 10.1445 0.552791C10.6281 1.51991 10.989 2.10688 11.3521 2.5828C11.7196 3.06453 12.1084 3.45889 12.6997 4.05028C14.0664 5.41692 14.75 7.21013 14.75 9.00004C14.75 10.7899 14.0664 12.5831 12.6997 13.9498C9.96608 16.6834 5.53392 16.6834 2.80025 13.9498C1.43361 12.5831 0.750002 10.7899 0.75 9.00004C0.749997 7.21013 1.43361 5.41692 2.80025 4.05028C3.08625 3.76428 3.51637 3.67872 3.89004 3.83351C4.26372 3.98829 4.50736 4.35292 4.50736 4.75739C4.50736 5.8772 4.57729 6.73046 4.90481 7.41104C5.08491 7.78527 5.36585 8.15115 5.85004 8.47764C5.96568 7.41687 6.17752 6.12448 6.46375 4.89778C6.68911 3.93195 6.96939 2.96773 7.303 2.16366C7.46986 1.76148 7.65855 1.37854 7.87285 1.04791C8.08145 0.726076 8.34945 0.39858 8.69539 0.167955C8.93405 0.0088495 9.22954 -0.040115 9.50676 0.0335053ZM9.87132 13.1213C8.69975 14.2929 6.80025 14.2929 5.62868 13.1213C5.04289 12.5355 4.75 11.7678 4.75 11C4.75 11 5.62868 11.5 7.25005 11.5C7.25005 10.5 7.75005 7.5 8.50005 7C9.00005 8 9.28553 8.2929 9.87132 8.87869C10.4571 9.46447 10.75 10.2322 10.75 11C10.75 11.7678 10.4571 12.5355 9.87132 13.1213Z" fill="#B9484F"/>
</svg>
