<svg width="16" height="18" viewBox="0 0 16 18" fill="none" xmlns="http://www.w3.org/2000/svg">
<path d="M12.464 14.5474C9.86047 17.1509 5.63937 17.1509 3.03587 14.5474C1.73413 13.2456 1.08325 11.5395 1.08325 9.83333C1.08325 8.12718 1.73412 6.42103 3.03587 5.11928C3.03587 5.11928 3.58329 6.49996 5.24996 7.3333C5.24996 5.66663 5.66662 3.16663 7.73815 1.5C9.41659 3.16667 11.1592 3.81454 12.464 5.11928C13.7657 6.42103 14.4166 8.12718 14.4166 9.83333C14.4166 11.5395 13.7657 13.2456 12.464 14.5474Z" stroke="#707A83" stroke-width="2" stroke-linecap="round" stroke-linejoin="round"/>
<path d="M5.98215 12.4344C6.95846 13.4107 8.54137 13.4107 9.51769 12.4344C10.0058 11.9462 10.2499 11.3065 10.2499 10.6667C10.2499 10.0268 10.0058 9.38702 9.51769 8.89886C9.03262 8.41379 8.39781 8.16972 7.76205 8.16666L6.91654 10.6666L5.24992 10.6667C5.24993 11.3065 5.494 11.9462 5.98215 12.4344Z" stroke="#707A83" stroke-width="2" stroke-linecap="round" stroke-linejoin="round"/>
</svg>
