<svg width="16" height="16" viewBox="0 0 16 16" fill="none" xmlns="http://www.w3.org/2000/svg">
<path d="M7.76272 0C5.35447 0 3.38993 1.97127 3.38993 4.37951C3.38993 5.85166 4.12657 7.15599 5.24762 7.94939C2.6328 8.99712 0.777832 11.5538 0.777832 14.5369C0.781833 14.7172 0.856258 14.8887 0.985173 15.0148C1.11409 15.1409 1.28724 15.2115 1.46757 15.2115C1.64789 15.2115 1.82104 15.1409 1.94996 15.0148C2.07887 14.8887 2.1533 14.7172 2.1573 14.5369C2.1573 11.371 4.70996 8.81965 7.87588 8.81965C8.98101 8.81965 10.0068 9.1347 10.88 9.6751C10.9573 9.72312 11.0433 9.75537 11.1331 9.77009C11.223 9.78482 11.3148 9.78168 11.4034 9.76087C11.492 9.74005 11.5756 9.70195 11.6495 9.64877C11.7233 9.59559 11.7859 9.52842 11.8338 9.451C11.8816 9.37357 11.9137 9.28746 11.9282 9.19761C11.9427 9.10777 11.9394 9.01591 11.9184 8.92737C11.8973 8.83882 11.8591 8.75527 11.8057 8.68154C11.7524 8.60781 11.685 8.54534 11.6074 8.49769C11.214 8.25421 10.7869 8.06359 10.3465 7.89959C11.4314 7.10213 12.1423 5.82228 12.1423 4.37951C12.1423 1.97127 10.171 0 7.76272 0ZM7.76272 1.38076C9.42546 1.38076 10.7628 2.71678 10.7628 4.37951C10.7628 6.04225 9.42546 7.37286 7.76272 7.37286C6.09999 7.37286 4.76939 6.04225 4.76939 4.37951C4.76939 2.71678 6.09999 1.38076 7.76272 1.38076ZM14.7436 9.65895C14.6315 9.66219 14.5218 9.69265 14.4242 9.74782C14.3265 9.80298 14.2438 9.88115 14.1832 9.9755L11.8055 13.5387L10.3142 12.5404C10.2386 12.4896 10.1537 12.4542 10.0643 12.4362C9.975 12.4183 9.883 12.4181 9.7936 12.4357C9.70421 12.4534 9.61918 12.4886 9.54339 12.5392C9.46759 12.5898 9.40253 12.6548 9.35192 12.7306C9.30132 12.8064 9.26616 12.8913 9.24847 12.9807C9.23079 13.0701 9.23091 13.1622 9.24885 13.2515C9.26678 13.3408 9.30217 13.4258 9.35299 13.5014C9.40381 13.577 9.46905 13.6419 9.54498 13.6922L11.6182 15.0717C11.6938 15.1218 11.7784 15.1566 11.8674 15.174C11.9563 15.1913 12.0478 15.1909 12.1367 15.1729C12.2255 15.1549 12.3099 15.1196 12.385 15.0689C12.4602 15.0183 12.5246 14.9533 12.5747 14.8778L15.335 10.738C15.407 10.6329 15.4484 10.5098 15.4547 10.3825C15.461 10.2552 15.4319 10.1286 15.3706 10.0169C15.3094 9.90511 15.2184 9.81251 15.1077 9.74933C14.997 9.68615 14.871 9.65486 14.7436 9.65895Z" fill="#B9484F"/>
</svg>
