<svg width="24" height="24" viewBox="0 0 24 24" fill="none" xmlns="http://www.w3.org/2000/svg">
<g clip-path="url(#clip0_1389_28389)">
<path fill-rule="evenodd" clip-rule="evenodd" d="M23.52 12.2727C23.52 11.4218 23.4436 10.6036 23.3018 9.81818H12V14.46H18.4582C18.18 15.96 17.3345 17.2309 16.0636 18.0818V21.0927H19.9418C22.2109 19.0036 23.52 15.9273 23.52 12.2727Z" fill="#4285F4"/>
<path fill-rule="evenodd" clip-rule="evenodd" d="M12.001 24C15.241 24 17.9573 22.9254 19.9428 21.0927L16.0646 18.0818C14.9901 18.8018 13.6155 19.2272 12.001 19.2272C8.87553 19.2272 6.23007 17.1163 5.28643 14.28H1.27734V17.3891C3.25189 21.3109 7.31007 24 12.001 24Z" fill="#34A853"/>
<path fill-rule="evenodd" clip-rule="evenodd" d="M5.28545 14.28C5.04545 13.56 4.90909 12.7909 4.90909 12C4.90909 11.2091 5.04545 10.44 5.28545 9.71999V6.6109H1.27636C0.463636 8.2309 0 10.0636 0 12C0 13.9364 0.463636 15.7691 1.27636 17.3891L5.28545 14.28Z" fill="#FBBC05"/>
<path fill-rule="evenodd" clip-rule="evenodd" d="M12.001 4.77273C13.7628 4.77273 15.3446 5.37818 16.5883 6.56727L20.0301 3.12545C17.9519 1.18909 15.2355 0 12.001 0C7.31007 0 3.25189 2.68909 1.27734 6.61091L5.28643 9.72C6.23007 6.88364 8.87553 4.77273 12.001 4.77273Z" fill="#EA4335"/>
</g>
<defs>
<clipPath id="clip0_1389_28389">
<rect width="24" height="24" rx="6" fill="white"/>
</clipPath>
</defs>
</svg>
