<svg width="17" height="17" viewBox="0 0 17 17" fill="none" xmlns="http://www.w3.org/2000/svg">
<path d="M14.1569 2.84313C12.6458 1.33216 10.6369 0.5 8.5 0.5C6.36313 0.5 4.35416 1.33216 2.84313 2.84313C1.33216 4.35416 0.5 6.36313 0.5 8.5V12.375C0.5 13.4089 1.34113 14.25 2.375 14.25H3C3 15.2839 3.84113 16.125 4.875 16.125C5.90887 16.125 6.75 15.2839 6.75 14.25V9.25C6.75 8.21613 5.90887 7.375 4.875 7.375C3.84113 7.375 3 8.21613 3 9.25H2.375C2.15591 9.25 1.94563 9.28813 1.75 9.3575V8.5C1.75 4.77803 4.77803 1.75 8.5 1.75C12.222 1.75 15.25 4.77803 15.25 8.5V9.3575C15.0544 9.28813 14.8441 9.25 14.625 9.25H14C14 8.21613 13.1589 7.375 12.125 7.375C11.0911 7.375 10.25 8.21613 10.25 9.25V14.25C10.25 15.2839 11.0911 16.125 12.125 16.125C13.1589 16.125 14 15.2839 14 14.25H14.625C15.6589 14.25 16.5 13.4089 16.5 12.375V8.5C16.5 6.36313 15.6678 4.35416 14.1569 2.84313V2.84313ZM4.25 9.25C4.25 8.90538 4.53038 8.625 4.875 8.625C5.21962 8.625 5.5 8.90538 5.5 9.25V14.25C5.5 14.5946 5.21962 14.875 4.875 14.875C4.53038 14.875 4.25 14.5946 4.25 14.25V9.25ZM2.375 10.5H3V13H2.375C2.03038 13 1.75 12.7196 1.75 12.375V11.125C1.75 10.7804 2.03038 10.5 2.375 10.5ZM12.75 14.25C12.75 14.5946 12.4696 14.875 12.125 14.875C11.7804 14.875 11.5 14.5946 11.5 14.25V9.25C11.5 8.90538 11.7804 8.625 12.125 8.625C12.4696 8.625 12.75 8.90538 12.75 9.25V14.25ZM15.25 12.375C15.25 12.7196 14.9696 13 14.625 13H14V10.5H14.625C14.9696 10.5 15.25 10.7804 15.25 11.125V12.375Z" fill="#04111D"/>
</svg>
