<svg width="21" height="20" viewBox="0 0 21 20" fill="none" xmlns="http://www.w3.org/2000/svg">
<path opacity="0.2" d="M2.83301 10.625V15C2.83301 15.3315 2.9647 15.6495 3.19912 15.8839C3.43354 16.1183 3.75149 16.25 4.08301 16.25H5.33301C5.66453 16.25 5.98247 16.1183 6.21689 15.8839C6.45131 15.6495 6.58301 15.3315 6.58301 15V11.875C6.58301 11.5435 6.45131 11.2255 6.21689 10.9911C5.98247 10.7567 5.66453 10.625 5.33301 10.625H2.83301Z" fill="#707A83"/>
<path opacity="0.2" d="M17.9463 10.625H15.4463C15.1148 10.625 14.7968 10.7567 14.5624 10.9911C14.328 11.2255 14.1963 11.5435 14.1963 11.875V15C14.1963 15.3315 14.328 15.6495 14.5624 15.8839C14.7968 16.1183 15.1148 16.25 15.4463 16.25H16.6963C17.0278 16.25 17.3458 16.1183 17.5802 15.8839C17.8146 15.6495 17.9463 15.3315 17.9463 15V10.625Z" fill="#707A83"/>
<path d="M17.9467 10.625H15.4467C15.1152 10.625 14.7973 10.7567 14.5629 10.9911C14.3284 11.2255 14.1967 11.5435 14.1967 11.875V15C14.1967 15.3315 14.3284 15.6495 14.5629 15.8839C14.7973 16.1183 15.1152 16.25 15.4467 16.25H16.6967C17.0283 16.25 17.3462 16.1183 17.5806 15.8839C17.815 15.6495 17.9467 15.3315 17.9467 15V10.625ZM17.9467 10.625C17.9467 9.63531 17.7509 8.65539 17.3704 7.74175C16.9899 6.82811 16.4324 5.9988 15.7299 5.30164C15.0274 4.60447 14.1939 4.05323 13.2774 3.6797C12.3609 3.30616 11.3795 3.11771 10.3899 3.12522C9.4002 3.11771 8.41883 3.30616 7.50233 3.6797C6.58583 4.05323 5.75232 4.60447 5.04985 5.30164C4.34738 5.9988 3.78984 6.82811 3.40936 7.74175C3.02889 8.65539 2.83301 9.63531 2.83301 10.625V15C2.83301 15.3315 2.9647 15.6495 3.19912 15.8839C3.43354 16.1183 3.75149 16.25 4.08301 16.25H5.33301C5.66453 16.25 5.98247 16.1183 6.21689 15.8839C6.45131 15.6495 6.58301 15.3315 6.58301 15V11.875C6.58301 11.5435 6.45131 11.2255 6.21689 10.9911C5.98247 10.7567 5.66453 10.625 5.33301 10.625H2.83301" stroke="#707A83" stroke-width="2" stroke-linecap="round" stroke-linejoin="round"/>
</svg>
