<svg width="18" height="18" viewBox="0 0 18 18" fill="none" xmlns="http://www.w3.org/2000/svg">
<path d="M5.1875 13.2291L10.3958 10.7916C10.4792 10.75 10.5556 10.6944 10.625 10.625C10.6944 10.5555 10.75 10.4791 10.7917 10.3958L13.2292 5.18746C13.2986 5.04857 13.2811 4.92718 13.1767 4.82329C13.0728 4.71885 12.9514 4.70135 12.8125 4.77079L7.60417 7.20829C7.52083 7.24996 7.44445 7.30552 7.375 7.37496C7.30556 7.4444 7.25 7.52079 7.20834 7.60413L4.77083 12.8125C4.70139 12.9513 4.71889 13.0727 4.82333 13.1766C4.92722 13.2811 5.04861 13.2986 5.1875 13.2291ZM9 9.83329C8.76389 9.83329 8.56611 9.75329 8.40667 9.59329C8.24667 9.43385 8.16667 9.23607 8.16667 8.99996C8.16667 8.76385 8.24667 8.56579 8.40667 8.40579C8.56611 8.24635 8.76389 8.16663 9 8.16663C9.23611 8.16663 9.43417 8.24635 9.59417 8.40579C9.75361 8.56579 9.83333 8.76385 9.83333 8.99996C9.83333 9.23607 9.75361 9.43385 9.59417 9.59329C9.43417 9.75329 9.23611 9.83329 9 9.83329ZM9 17.3333C7.84722 17.3333 6.76389 17.1144 5.75 16.6766C4.73611 16.2394 3.85417 15.6458 3.10417 14.8958C2.35417 14.1458 1.76056 13.2638 1.32333 12.25C0.885557 11.2361 0.666668 10.1527 0.666668 8.99996C0.666668 7.84718 0.885557 6.76385 1.32333 5.74996C1.76056 4.73607 2.35417 3.85413 3.10417 3.10413C3.85417 2.35413 4.73611 1.76024 5.75 1.32246C6.76389 0.885237 7.84722 0.666626 9 0.666626C10.1528 0.666626 11.2361 0.885237 12.25 1.32246C13.2639 1.76024 14.1458 2.35413 14.8958 3.10413C15.6458 3.85413 16.2394 4.73607 16.6767 5.74996C17.1144 6.76385 17.3333 7.84718 17.3333 8.99996C17.3333 10.1527 17.1144 11.2361 16.6767 12.25C16.2394 13.2638 15.6458 14.1458 14.8958 14.8958C14.1458 15.6458 13.2639 16.2394 12.25 16.6766C11.2361 17.1144 10.1528 17.3333 9 17.3333ZM9 15.6666C10.8472 15.6666 12.4203 15.0175 13.7192 13.7191C15.0175 12.4202 15.6667 10.8472 15.6667 8.99996C15.6667 7.15274 15.0175 5.57968 13.7192 4.28079C12.4203 2.98246 10.8472 2.33329 9 2.33329C7.15278 2.33329 5.58 2.98246 4.28167 4.28079C2.98278 5.57968 2.33333 7.15274 2.33333 8.99996C2.33333 10.8472 2.98278 12.4202 4.28167 13.7191C5.58 15.0175 7.15278 15.6666 9 15.6666Z" fill="#707A83"/>
</svg>
