<svg width="18" height="18" viewBox="0 0 18 18" fill="none" xmlns="http://www.w3.org/2000/svg">
<path d="M0 1.50263C1.01134e-05 1.2276 0.075671 0.957874 0.218707 0.722947C0.361744 0.488021 0.566646 0.296944 0.811003 0.170615C1.05536 0.044287 1.32976 -0.0124273 1.60419 0.00667633C1.87862 0.0257799 2.14251 0.119966 2.367 0.278931L12.867 7.72159C13.062 7.85947 13.2213 8.04194 13.3316 8.25379C13.4419 8.46565 13.4999 8.70077 13.501 8.93959C13.502 9.17841 13.446 9.41402 13.3375 9.62681C13.2291 9.83961 13.0714 10.0234 12.8775 10.163L2.3775 17.7166C2.1535 17.8782 1.88924 17.9747 1.61384 17.9957C1.33845 18.0166 1.06261 17.9612 0.81674 17.8354C0.570865 17.7096 0.364499 17.5184 0.220386 17.2829C0.0762731 17.0473 9.19472e-06 16.7765 0 16.5004V1.50263ZM18 0.749815C18 0.550951 17.921 0.360233 17.7803 0.219616C17.6397 0.0789982 17.4489 0 17.25 0C17.0511 0 16.8603 0.0789982 16.7197 0.219616C16.579 0.360233 16.5 0.550951 16.5 0.749815V17.2457C16.5 17.4446 16.579 17.6353 16.7197 17.7759C16.8603 17.9166 17.0511 17.9956 17.25 17.9956C17.4489 17.9956 17.6397 17.9166 17.7803 17.7759C17.921 17.6353 18 17.4446 18 17.2457V0.749815Z" fill="black"/>
</svg>
