<svg width="16" height="18" viewBox="0 0 16 18" fill="none" xmlns="http://www.w3.org/2000/svg">
<path d="M10.5 13.1667H14.6667L13.4959 11.9959C13.1784 11.6784 13 11.2477 13 10.7987V8.16667C13 5.98964 11.6086 4.13757 9.66666 3.45118V3.16667C9.66666 2.24619 8.92047 1.5 7.99999 1.5C7.07952 1.5 6.33333 2.24619 6.33333 3.16667V3.45118C4.39134 4.13757 2.99999 5.98964 2.99999 8.16667V10.7987C2.99999 11.2477 2.82162 11.6784 2.50411 11.9959L1.33333 13.1667H5.49999M10.5 13.1667V14C10.5 15.3807 9.38071 16.5 7.99999 16.5C6.61928 16.5 5.49999 15.3807 5.49999 14V13.1667M10.5 13.1667H5.49999" stroke="#707A83" stroke-width="2" stroke-linecap="round" stroke-linejoin="round"/>
</svg>
