<svg width="18" height="17" viewBox="0 0 18 17" fill="none" xmlns="http://www.w3.org/2000/svg">
<path d="M9.24938 16.7497C13.8517 16.7497 17.5827 13.0187 17.5827 8.41631C17.5827 3.81392 13.8517 0.0830078 9.24938 0.0830078C4.64705 0.0830078 0.916016 3.81398 0.916016 8.41637C0.916016 13.0188 4.64699 16.7497 9.24938 16.7497ZM9.24938 1.41633C13.1091 1.41633 16.2494 4.55664 16.2494 8.41631C16.2494 12.276 13.1091 15.4163 9.24938 15.4163C5.38971 15.4163 2.2494 12.276 2.2494 8.41631C2.2494 4.55664 5.38934 1.41633 9.24938 1.41633Z" fill="#04111D"/>
<path d="M7.70063 12.3467C8.16095 12.3467 8.53399 11.9737 8.53399 11.5134V5.18003C8.53399 4.71972 8.16101 4.34668 7.70063 4.34668C7.24032 4.34668 6.86728 4.71966 6.86728 5.18003V11.5134C6.86728 11.9737 7.24026 12.3467 7.70063 12.3467Z" fill="#04111D"/>
<path d="M11.0345 12.3467C11.4948 12.3467 11.8678 11.9737 11.8678 11.5134V5.18003C11.8678 4.71972 11.4948 4.34668 11.0345 4.34668C10.5741 4.34668 10.2012 4.71972 10.2012 5.18003V11.5134C10.2012 11.9737 10.5742 12.3467 11.0345 12.3467Z" fill="#04111D"/>
</svg>
