<svg width="16" height="14" viewBox="0 0 16 14" fill="none" xmlns="http://www.w3.org/2000/svg">
<path d="M5 0C4.44772 0 4 0.447715 4 1C4 1.55228 4.44772 2 5 2H11C11.5523 2 12 1.55228 12 1C12 0.447715 11.5523 0 11 0H5Z" fill="#B9484F"/>
<path d="M2 4C2 3.44772 2.44772 3 3 3H13C13.5523 3 14 3.44772 14 4C14 4.55228 13.5523 5 13 5H3C2.44772 5 2 4.55228 2 4Z" fill="#B9484F"/>
<path d="M0 8C0 6.89543 0.895431 6 2 6H14C15.1046 6 16 6.89543 16 8V12C16 13.1046 15.1046 14 14 14H2C0.895431 14 0 13.1046 0 12V8Z" fill="#B9484F"/>
</svg>
