<svg width="18" height="18" viewBox="0 0 18 18" fill="none" xmlns="http://www.w3.org/2000/svg">
<path d="M14.8333 8.16667H3.16667M14.8333 8.16667C15.7538 8.16667 16.5 8.91286 16.5 9.83333V14.8333C16.5 15.7538 15.7538 16.5 14.8333 16.5H3.16667C2.24619 16.5 1.5 15.7538 1.5 14.8333V9.83333C1.5 8.91286 2.24619 8.16667 3.16667 8.16667M14.8333 8.16667V6.5C14.8333 5.57953 14.0871 4.83333 13.1667 4.83333M3.16667 8.16667V6.5C3.16667 5.57953 3.91286 4.83333 4.83333 4.83333M4.83333 4.83333V3.16667C4.83333 2.24619 5.57953 1.5 6.5 1.5H11.5C12.4205 1.5 13.1667 2.24619 13.1667 3.16667V4.83333M4.83333 4.83333H13.1667" stroke="#707A83" stroke-width="2" stroke-linecap="round" stroke-linejoin="round"/>
</svg>
