<svg width="16" height="16" viewBox="0 0 16 16" fill="none" xmlns="http://www.w3.org/2000/svg">
<path d="M14.7695 4.31427H14.2532V3.79791C14.2532 3.48104 13.9963 3.22418 13.6794 3.22418C13.3626 3.22418 13.1057 3.48104 13.1057 3.79791V4.31427H12.5894C12.2725 4.31427 12.0156 4.57113 12.0156 4.888C12.0156 5.20487 12.2725 5.46173 12.5894 5.46173H13.1057V5.97809C13.1057 6.29496 13.3626 6.55182 13.6794 6.55182C13.9963 6.55182 14.2532 6.29496 14.2532 5.97809V5.46173H14.7695C15.0864 5.46173 15.3433 5.20487 15.3433 4.888C15.3433 4.57113 15.0864 4.31427 14.7695 4.31427Z" fill="#B9484F"/>
<path d="M9.70424 7.80607C10.5776 7.13136 11.1412 6.07423 11.1412 4.88776C11.1412 2.85517 9.48754 1.20154 7.45496 1.20154C5.42237 1.20154 3.76874 2.85517 3.76874 4.88776C3.76874 6.0742 4.33231 7.13136 5.20567 7.80607C2.61534 8.71147 0.65625 11.1967 0.65625 14.2252C0.65625 14.5421 0.913109 14.799 1.22998 14.799H13.6799C13.9968 14.799 14.2537 14.5421 14.2537 14.2252C14.2537 11.196 12.2931 8.71095 9.70424 7.80607ZM4.9162 4.88776C4.9162 3.48788 6.05508 2.349 7.45496 2.349C8.85483 2.349 9.99371 3.48788 9.99371 4.88776C9.99371 6.28763 8.85483 7.42651 7.45496 7.42651C6.05508 7.42651 4.9162 6.28763 4.9162 4.88776ZM1.83263 13.6515C2.12101 10.8038 4.53246 8.57397 7.45496 8.57397C10.3775 8.57397 12.7889 10.8038 13.0773 13.6515H1.83263Z" fill="#B9484F"/>
</svg>
