<svg width="19" height="20" viewBox="0 0 19 20" fill="none" xmlns="http://www.w3.org/2000/svg">
<path d="M4.49996 4.99994H14.5V6.78994C14.5 7.23994 15.04 7.45994 15.35 7.13994L18.14 4.34994C18.34 4.14994 18.34 3.83994 18.14 3.63994L15.35 0.849941C15.04 0.539941 14.5 0.759941 14.5 1.20994V2.99994H3.49996C2.94996 2.99994 2.49996 3.44994 2.49996 3.99994V7.99994C2.49996 8.54994 2.94996 8.99994 3.49996 8.99994C4.04996 8.99994 4.49996 8.54994 4.49996 7.99994V4.99994ZM14.5 14.9999H4.49996V13.2099C4.49996 12.7599 3.95996 12.5399 3.64996 12.8599L0.859961 15.6499C0.659961 15.8499 0.659961 16.1599 0.859961 16.3599L3.64996 19.1499C3.95996 19.4599 4.49996 19.2399 4.49996 18.7899V16.9999H15.5C16.05 16.9999 16.5 16.5499 16.5 15.9999V11.9999C16.5 11.4499 16.05 10.9999 15.5 10.9999C14.95 10.9999 14.5 11.4499 14.5 11.9999V14.9999Z" fill="#353840"/>
</svg>
 