<svg width="16" height="16" viewBox="0 0 16 16" fill="none" xmlns="http://www.w3.org/2000/svg">
<path d="M13.9582 8.71565C14.2292 8.58013 14.4004 8.30312 14.4004 8.00011C14.4004 7.69709 14.2292 7.42008 13.9582 7.28456L2.75816 1.68456C2.4744 1.54268 2.13361 1.58189 1.88948 1.7845C1.64535 1.98711 1.54401 2.31484 1.63117 2.61988L2.77403 6.61987C2.87215 6.96331 3.18606 7.2001 3.54324 7.2001L7.20039 7.2001C7.64222 7.2001 8.00039 7.55827 8.00039 8.0001C8.00039 8.44193 7.64222 8.8001 7.20039 8.8001L3.54325 8.8001C3.18606 8.8001 2.87216 9.03688 2.77403 9.38032L1.63117 13.3803C1.54401 13.6854 1.64535 14.0131 1.88948 14.2157C2.13361 14.4183 2.4744 14.4575 2.75816 14.3156L13.9582 8.71565Z" fill="#081C2C"/>
</svg>
