<svg width="24" height="24" viewBox="0 0 24 24" fill="none" xmlns="http://www.w3.org/2000/svg">
<rect width="24" height="24" rx="12" fill="#707A83" fill-opacity="0.1"/>
<path d="M10.7038 13.2269C10.8133 13.0082 10.875 12.7613 10.875 12.5C10.875 12.2387 10.8133 11.9918 10.7038 11.7731M10.7038 13.2269C10.437 13.7594 9.88618 14.125 9.25 14.125C8.35254 14.125 7.625 13.3975 7.625 12.5C7.625 11.6025 8.35254 10.875 9.25 10.875C9.88618 10.875 10.437 11.2406 10.7038 11.7731M10.7038 13.2269L14.2962 15.0231M10.7038 11.7731L14.2962 9.97688M14.2962 9.97688C14.563 10.5094 15.1138 10.875 15.75 10.875C16.6475 10.875 17.375 10.1475 17.375 9.25C17.375 8.35254 16.6475 7.625 15.75 7.625C14.8525 7.625 14.125 8.35254 14.125 9.25C14.125 9.51128 14.1867 9.75816 14.2962 9.97688ZM14.2962 15.0231C14.1867 15.2418 14.125 15.4887 14.125 15.75C14.125 16.6475 14.8525 17.375 15.75 17.375C16.6475 17.375 17.375 16.6475 17.375 15.75C17.375 14.8525 16.6475 14.125 15.75 14.125C15.1138 14.125 14.563 14.4906 14.2962 15.0231Z" stroke="#707A83" stroke-linecap="round" stroke-linejoin="round"/>
</svg>
