<svg width="17" height="16" viewBox="0 0 17 16" fill="none" xmlns="http://www.w3.org/2000/svg">
<path d="M6.8866 5.17L2.4166 0.7C2.0266 0.31 1.3966 0.31 1.0066 0.7C0.616602 1.09 0.616602 1.72 1.0066 2.11L5.4666 6.57L6.8866 5.17ZM11.6466 0.85L12.8366 2.04L0.996602 13.88C0.606602 14.27 0.606602 14.9 0.996602 15.29C1.3866 15.68 2.0166 15.68 2.4066 15.29L14.2566 3.46L15.4466 4.65C15.7566 4.96 16.2966 4.74 16.2966 4.29V0.5C16.2966 0.22 16.0766 0 15.7966 0H12.0066C11.5566 0 11.3366 0.54 11.6466 0.85ZM11.1266 9.41L9.7166 10.82L12.8466 13.95L11.6466 15.15C11.3366 15.46 11.5566 16 12.0066 16H15.7966C16.0766 16 16.2966 15.78 16.2966 15.5V11.71C16.2966 11.26 15.7566 11.04 15.4466 11.36L14.2566 12.55L11.1266 9.41Z" fill="#353840"/>
</svg>
