<svg width="28" height="28" viewBox="0 0 28 28" fill="none" xmlns="http://www.w3.org/2000/svg">
<g clip-path="url(#clip0_1508_20102)">
<path d="M13.049 2.92664C13.3483 2.00537 14.6517 2.00538 14.951 2.92664L16.919 8.98246C17.0528 9.39445 17.4368 9.67339 17.87 9.6734L24.2375 9.67365C25.2062 9.67368 25.6089 10.9132 24.8253 11.4826L19.674 15.2256C19.3235 15.4802 19.1769 15.9316 19.3107 16.3436L21.2782 22.3995C21.5775 23.3208 20.5231 24.0869 19.7393 23.5175L14.5878 19.775C14.2373 19.5204 13.7627 19.5204 13.4122 19.775L8.26065 23.5175C7.47695 24.0869 6.42252 23.3208 6.72183 22.3995L8.68928 16.3436C8.82313 15.9316 8.67648 15.4802 8.32603 15.2256L3.17472 11.4826C2.39106 10.9132 2.79381 9.67368 3.7625 9.67365L10.13 9.6734C10.5632 9.67339 10.9472 9.39445 11.081 8.98246L13.049 2.92664Z" stroke="#081C2C" stroke-width="2"/>
</g>
<defs>
<clipPath id="clip0_1508_20102">
<rect width="28" height="28" fill="white"/>
</clipPath>
</defs>
</svg>
