<svg width="16" height="15" viewBox="0 0 16 15" fill="none" xmlns="http://www.w3.org/2000/svg">
<path d="M6.71568 0.890995C7.01503 -0.0303157 8.31844 -0.0303152 8.61779 0.890995L9.68736 4.18279C9.82123 4.59482 10.2052 4.87378 10.6384 4.87378H14.0996C15.0683 4.87378 15.4711 6.11339 14.6874 6.68279L11.8872 8.71723C11.5367 8.97188 11.3901 9.42325 11.524 9.83527L12.5935 13.1271C12.8929 14.0484 11.8384 14.8145 11.0547 14.2451L8.25452 12.2107C7.90403 11.956 7.42943 11.956 7.07895 12.2107L4.27878 14.2451C3.49506 14.8145 2.44058 14.0484 2.73994 13.1271L3.80951 9.83527C3.94338 9.42325 3.79672 8.97188 3.44623 8.71723L0.646065 6.68279C-0.137649 6.11339 0.265127 4.87378 1.23385 4.87378H4.69505C5.12828 4.87378 5.51223 4.59482 5.64611 4.18279L6.71568 0.890995Z" fill="#FFE074"/>
</svg>
