<svg width="18" height="18" viewBox="0 0 18 18" fill="none" xmlns="http://www.w3.org/2000/svg">
<path d="M3.26753 13.8364C4.96056 12.8795 6.9165 12.3333 9 12.3333C11.0835 12.3333 13.0394 12.8795 14.7325 13.8364M11.5 7.33333C11.5 8.71405 10.3807 9.83333 9 9.83333C7.61929 9.83333 6.5 8.71405 6.5 7.33333C6.5 5.95262 7.61929 4.83333 9 4.83333C10.3807 4.83333 11.5 5.95262 11.5 7.33333ZM16.5 9C16.5 13.1421 13.1421 16.5 9 16.5C4.85786 16.5 1.5 13.1421 1.5 9C1.5 4.85786 4.85786 1.5 9 1.5C13.1421 1.5 16.5 4.85786 16.5 9Z" stroke="#707A83" stroke-width="2" stroke-linecap="round" stroke-linejoin="round"/>
</svg>
